# xmcd
#
# Track frame offsets:
#	150
#	25719
#	48958
#	76766
#	99476
#	125374
#	150939
#	170777
#	197271
#	214950
#	238037
#	254274
#	285373
#	288525
#	307943
# Disc length: 4315 seconds
# Revision: 3
# Processed by: cddbd v1.5PL3 Copyright (c) Steve Scherf et al.
#
# Submitted via: libkcddb 0.10
#
DISCID=bd10d90f
DTITLE=Kirk Franklin - Nu Nation Project
DYEAR=2000
DGENRE=Country
TTITLE0=Revolution
TTITLE1=Lean on Me
TTITLE2=Something About the Name Jesus
TTITLE3=Riverside
TTITLE4=He Loves Me
TTITLE5=Gonna Be A Lovely Day
TTITLE6=Praise Joint (Remix)
TTITLE7=Hold Me Now
TTITLE8=You Are
TTITLE9=Stomp
TTITLE10=If You've Been Delivered
TTITLE11=Smile Again
TTITLE12=
TTITLE13=
TTITLE14=
EXTD=
EXTT0=
EXTT1=
EXTT2=
EXTT3=
EXTT4=
EXTT5=
EXTT6=
EXTT7=
EXTT8=
EXTT9=
EXTT10=
EXTT11=
EXTT12=
EXTT13=
EXTT14=
PLAYORDER=
